{"glyphs":{"0":{"ha":1042,"x_min":1,"x_max":925,"o":"m 925 117 l 808 117 l 808 1 l 117 1 l 117 118 l 1 118 l 1 809 l 117 809 l 117 924 l 809 924 l 809 808 l 925 808 l 925 117 m 693 233 l 693 693 l 233 693 l 233 233 l 693 233 m 578 348 l 348 348 l 348 578 l 578 578 l 578 348 z "},"1":{"ha":463,"x_min":1,"x_max":346,"o":"m 346 1 l 117 1 l 117 580 l 1 580 l 1 809 l 117 809 l 117 924 l 346 924 l 346 1 z "},"2":{"ha":1042,"x_min":1,"x_max":925,"o":"m 925 464 l 808 464 l 808 348 l 230 348 l 230 229 l 924 229 l 924 1 l 1 1 l 1 462 l 118 462 l 118 578 l 696 578 l 696 696 l 1 696 l 1 924 l 809 924 l 809 808 l 925 808 l 925 464 z "},"3":{"ha":1042,"x_min":1,"x_max":925,"o":"m 925 117 l 808 117 l 808 1 l 1 1 l 1 230 l 696 230 l 696 348 l 117 348 l 117 578 l 696 578 l 696 696 l 1 696 l 1 924 l 809 924 l 809 808 l 925 808 l 925 117 z "},"4":{"ha":1042,"x_min":1,"x_max":925,"o":"m 925 1 l 696 1 l 696 233 l 117 233 l 117 350 l 1 350 l 1 924 l 230 924 l 230 462 l 696 462 l 696 924 l 925 924 l 925 1 z "},"5":{"ha":1042,"x_min":1,"x_max":925,"o":"m 925 117 l 808 117 l 808 1 l 1 1 l 1 230 l 696 230 l 696 348 l 1 348 l 1 925 l 924 925 l 924 696 l 230 696 l 230 576 l 809 576 l 809 461 l 925 461 l 925 117 z "},"6":{"ha":1042,"x_min":1,"x_max":925,"o":"m 925 117 l 808 117 l 808 1 l 117 1 l 117 118 l 1 118 l 1 809 l 117 809 l 117 924 l 808 924 l 808 696 l 230 696 l 230 576 l 809 576 l 809 461 l 925 461 l 925 117 m 692 233 l 692 346 l 233 346 l 233 233 l 692 233 z "},"7":{"ha":1042,"x_min":1,"x_max":925,"o":"m 925 1 l 696 1 l 696 696 l 230 696 l 230 348 l 1 348 l 1 809 l 117 809 l 117 924 l 809 924 l 809 808 l 925 808 l 925 1 z "},"8":{"ha":1042,"x_min":1,"x_max":925,"o":"m 925 117 l 808 117 l 808 1 l 117 1 l 117 118 l 1 118 l 1 809 l 117 809 l 117 924 l 809 924 l 809 808 l 925 808 l 925 117 m 692 580 l 692 693 l 233 693 l 233 580 l 692 580 m 692 233 l 692 346 l 233 346 l 233 233 l 692 233 z "},"9":{"ha":1042,"x_min":1,"x_max":925,"o":"m 925 117 l 808 117 l 808 1 l 117 1 l 117 230 l 696 230 l 696 348 l 117 348 l 117 465 l 1 465 l 1 809 l 117 809 l 117 924 l 809 924 l 809 808 l 925 808 l 925 117 m 692 580 l 692 693 l 233 693 l 233 580 l 692 580 z "}," ":{"ha":579,"x_min":0,"x_max":0,"o":""},"!":{"ha":347,"x_min":1,"x_max":230,"o":"m 230 348 l 1 348 l 1 924 l 230 924 l 230 348 m 230 1 l 1 1 l 1 230 l 230 230 l 230 1 z "},"\"":{"ha":694,"x_min":1,"x_max":578,"o":"m 578 580 l 348 580 l 348 924 l 578 924 l 578 580 m 230 580 l 1 580 l 1 924 l 230 924 l 230 580 z "},"#":{"ha":926,"x_min":1,"x_max":809,"o":"m 809 233 l 692 233 l 692 117 l 464 117 l 464 233 l 345 233 l 345 117 l 117 117 l 117 234 l 1 234 l 1 462 l 117 462 l 117 581 l 1 581 l 1 809 l 117 809 l 117 924 l 346 924 l 346 809 l 465 809 l 465 925 l 693 925 l 693 808 l 809 808 l 809 580 l 693 580 l 693 461 l 809 461 l 809 233 m 462 464 l 462 576 l 348 576 l 348 464 l 462 464 z "},"$":{"ha":1042,"x_min":1,"x_max":925,"o":"m 925 117 l 808 117 l 808 1 l 576 1 l 576 -115 l 348 -115 l 348 2 l 1 2 l 1 230 l 348 230 l 348 348 l 117 348 l 117 465 l 1 465 l 1 809 l 118 809 l 118 925 l 348 925 l 348 1039 l 578 1039 l 578 924 l 924 924 l 924 696 l 578 696 l 578 576 l 809 576 l 809 461 l 925 461 l 925 117 m 346 580 l 346 692 l 233 692 l 233 580 l 346 580 m 693 233 l 693 345 l 580 345 l 580 233 l 693 233 z "},"%":{"ha":1505,"x_min":1,"x_max":1388,"o":"m 1388 1 l 1271 1 l 1271 -115 l 927 -115 l 927 2 l 811 2 l 811 348 l 692 348 l 692 233 l 576 233 l 576 117 l 461 117 l 461 1 l 233 1 l 233 230 l 350 230 l 350 346 l 464 346 l 464 464 l 117 464 l 117 581 l 1 581 l 1 925 l 117 925 l 117 1039 l 462 1039 l 462 924 l 578 924 l 578 578 l 697 578 l 697 693 l 813 693 l 813 809 l 927 809 l 927 925 l 1155 925 l 1155 696 l 1039 696 l 1039 580 l 925 580 l 925 461 l 1272 461 l 1272 345 l 1388 345 l 1388 1 m 925 348 l 925 461 l 811 461 l 811 348 l 925 348 m 1155 117 l 1155 229 l 1043 229 l 1043 117 l 1155 117 m 346 696 l 346 808 l 233 808 l 233 696 l 346 696 m 578 464 l 578 576 l 464 576 l 464 464 l 578 464 z "},"&":{"ha":1157,"x_min":1,"x_max":1039,"o":"m 1039 348 l 924 348 l 924 117 l 808 117 l 808 1 l 117 1 l 117 118 l 1 118 l 1 346 l 117 346 l 117 580 l 1 580 l 1 809 l 117 809 l 117 924 l 809 924 l 809 808 l 925 808 l 925 696 l 346 696 l 346 576 l 462 576 l 462 348 l 346 348 l 346 230 l 696 230 l 696 350 l 580 350 l 580 578 l 1039 578 l 1039 348 z "},"'":{"ha":347,"x_min":1,"x_max":230,"o":"m 230 580 l 1 580 l 1 924 l 230 924 l 230 580 z "},"(":{"ha":463,"x_min":1,"x_max":346,"o":"m 346 1 l 117 1 l 117 118 l 1 118 l 1 809 l 117 809 l 117 924 l 346 924 l 346 696 l 230 696 l 230 229 l 346 229 l 346 1 z "},")":{"ha":463,"x_min":1,"x_max":346,"o":"m 346 117 l 229 117 l 229 1 l 1 1 l 1 230 l 117 230 l 117 696 l 1 696 l 1 924 l 230 924 l 230 808 l 346 808 l 346 117 z "},"*":{"ha":1042,"x_min":1,"x_max":925,"o":"m 925 811 l 693 811 l 693 692 l 925 692 l 925 464 l 693 464 l 693 345 l 925 345 l 925 117 l 696 117 l 696 348 l 576 348 l 576 117 l 348 117 l 348 348 l 229 348 l 229 117 l 1 117 l 1 346 l 233 346 l 233 464 l 1 464 l 1 693 l 233 693 l 233 811 l 1 811 l 1 1039 l 230 1039 l 230 809 l 348 809 l 348 1041 l 578 1041 l 578 809 l 696 809 l 696 1041 l 925 1041 l 925 811 z "},"+":{"ha":810,"x_min":1,"x_max":693,"o":"m 693 348 l 461 348 l 461 117 l 233 117 l 233 348 l 1 348 l 1 578 l 233 578 l 233 808 l 462 808 l 462 576 l 693 576 l 693 348 z "},",":{"ha":347,"x_min":1,"x_max":230,"o":"m 230 -115 l 1 -115 l 1 230 l 230 230 l 230 -115 z "},"-":{"ha":810,"x_min":1,"x_max":693,"o":"m 693 348 l 1 348 l 1 578 l 693 578 l 693 348 z "},".":{"ha":347,"x_min":1,"x_max":230,"o":"m 230 1 l 1 1 l 1 230 l 230 230 l 230 1 z "},"/":{"ha":1042,"x_min":1,"x_max":925,"o":"m 925 696 l 808 696 l 808 580 l 692 580 l 692 464 l 576 464 l 576 348 l 461 348 l 461 233 l 345 233 l 345 117 l 229 117 l 229 1 l 1 1 l 1 230 l 118 230 l 118 346 l 234 346 l 234 462 l 350 462 l 350 578 l 465 578 l 465 693 l 581 693 l 581 809 l 696 809 l 696 924 l 925 924 l 925 696 z "},":":{"ha":347,"x_min":1,"x_max":230,"o":"m 230 580 l 1 580 l 1 808 l 230 808 l 230 580 m 230 233 l 1 233 l 1 462 l 230 462 l 230 233 z "},";":{"ha":347,"x_min":1,"x_max":230,"o":"m 230 580 l 1 580 l 1 808 l 230 808 l 230 580 m 230 117 l 1 117 l 1 462 l 230 462 l 230 117 z "},"<":{"ha":579,"x_min":1,"x_max":462,"o":"m 462 580 l 346 580 l 346 345 l 462 345 l 462 1 l 348 1 l 348 118 l 233 118 l 233 234 l 117 234 l 117 350 l 1 350 l 1 578 l 118 578 l 118 693 l 234 693 l 234 809 l 348 809 l 348 924 l 462 924 l 462 580 z "},"=":{"ha":810,"x_min":1,"x_max":693,"o":"m 693 580 l 1 580 l 1 809 l 693 809 l 693 580 m 693 117 l 1 117 l 1 346 l 693 346 l 693 117 z "},">":{"ha":579,"x_min":1,"x_max":462,"o":"m 462 348 l 345 348 l 345 233 l 229 233 l 229 117 l 113 117 l 113 1 l 1 1 l 1 346 l 117 346 l 117 580 l 1 580 l 1 924 l 115 924 l 115 808 l 230 808 l 230 692 l 346 692 l 346 576 l 462 576 l 462 348 z "},"?":{"ha":1042,"x_min":1,"x_max":925,"o":"m 925 464 l 808 464 l 808 348 l 233 348 l 233 578 l 696 578 l 696 696 l 1 696 l 1 925 l 809 925 l 809 808 l 925 808 l 925 464 m 578 1 l 348 1 l 348 230 l 578 230 l 578 1 z "},"@":{"ha":1042,"x_min":1,"x_max":925,"o":"m 925 1 l 117 1 l 117 118 l 1 118 l 1 809 l 117 809 l 117 924 l 809 924 l 809 808 l 925 808 l 925 1 m 692 580 l 692 693 l 233 693 l 233 233 l 346 233 l 346 580 l 692 580 m 693 233 l 693 345 l 580 345 l 580 233 l 693 233 z "},"A":{"ha":1042,"x_min":1,"x_max":925,"o":"m 925 1 l 696 1 l 696 118 l 348 118 l 348 346 l 696 346 l 696 465 l 580 465 l 580 580 l 345 580 l 345 464 l 229 464 l 229 1 l 1 1 l 1 578 l 118 578 l 118 693 l 234 693 l 234 809 l 348 809 l 348 924 l 578 924 l 578 808 l 693 808 l 693 692 l 809 692 l 809 576 l 925 576 l 925 1 z "},"B":{"ha":1042,"x_min":1,"x_max":925,"o":"m 925 117 l 808 117 l 808 1 l 1 1 l 1 578 l 230 578 l 230 230 l 696 230 l 696 348 l 348 348 l 348 578 l 696 578 l 696 696 l 1 696 l 1 925 l 809 925 l 809 808 l 925 808 l 925 117 z "},"C":{"ha":1042,"x_min":1,"x_max":925,"o":"m 925 580 l 696 580 l 696 696 l 230 696 l 230 230 l 696 230 l 696 346 l 925 346 l 925 117 l 808 117 l 808 1 l 117 1 l 117 118 l 1 118 l 1 809 l 117 809 l 117 924 l 809 924 l 809 808 l 925 808 l 925 580 z "},"D":{"ha":1042,"x_min":1,"x_max":925,"o":"m 925 117 l 808 117 l 808 1 l 1 1 l 1 578 l 230 578 l 230 230 l 696 230 l 696 696 l 1 696 l 1 925 l 809 925 l 809 808 l 925 808 l 925 117 z "},"E":{"ha":1042,"x_min":1,"x_max":924,"o":"m 809 348 l 348 348 l 348 578 l 809 578 l 809 348 m 924 1 l 117 1 l 117 118 l 1 118 l 1 809 l 117 809 l 117 924 l 924 924 l 924 696 l 230 696 l 230 230 l 924 230 l 924 1 z "},"F":{"ha":1042,"x_min":1,"x_max":924,"o":"m 809 348 l 348 348 l 348 578 l 809 578 l 809 348 m 924 696 l 230 696 l 230 1 l 1 1 l 1 809 l 117 809 l 117 924 l 924 924 l 924 696 z "},"G":{"ha":1042,"x_min":1,"x_max":925,"o":"m 925 1 l 117 1 l 117 118 l 1 118 l 1 809 l 117 809 l 117 924 l 924 924 l 924 696 l 230 696 l 230 230 l 696 230 l 696 348 l 348 348 l 348 578 l 925 578 l 925 1 z "},"H":{"ha":1042,"x_min":1,"x_max":925,"o":"m 925 1 l 696 1 l 696 348 l 230 348 l 230 1 l 1 1 l 1 578 l 696 578 l 696 924 l 925 924 l 925 1 m 230 696 l 1 696 l 1 924 l 230 924 l 230 696 z "},"I":{"ha":347,"x_min":1,"x_max":230,"o":"m 230 1 l 1 1 l 1 924 l 230 924 l 230 1 z "},"J":{"ha":1042,"x_min":1,"x_max":925,"o":"m 924 696 l 348 696 l 348 924 l 924 924 l 924 696 m 925 117 l 808 117 l 808 1 l 117 1 l 117 118 l 1 118 l 1 578 l 230 578 l 230 230 l 696 230 l 696 578 l 925 578 l 925 117 z "},"K":{"ha":1042,"x_min":1,"x_max":925,"o":"m 925 1 l 696 1 l 696 118 l 580 118 l 580 234 l 464 234 l 464 350 l 348 350 l 348 578 l 465 578 l 465 693 l 581 693 l 581 809 l 696 809 l 696 924 l 925 924 l 925 696 l 808 696 l 808 580 l 692 580 l 692 345 l 809 345 l 809 229 l 925 229 l 925 1 m 230 1 l 1 1 l 1 924 l 230 924 l 230 1 z "},"L":{"ha":926,"x_min":1,"x_max":808,"o":"m 808 1 l 117 1 l 117 118 l 1 118 l 1 924 l 230 924 l 230 230 l 808 230 l 808 1 z "},"M":{"ha":1157,"x_min":1,"x_max":1041,"o":"m 1041 1 l 811 1 l 811 464 l 692 464 l 692 348 l 576 348 l 576 233 l 464 233 l 464 350 l 348 350 l 348 464 l 229 464 l 229 1 l 1 1 l 1 578 l 117 578 l 117 696 l 1 696 l 1 924 l 230 924 l 230 808 l 346 808 l 346 692 l 462 692 l 462 578 l 581 578 l 581 693 l 697 693 l 697 809 l 813 809 l 813 925 l 1041 925 l 1041 1 m 230 464 l 230 576 l 117 576 l 117 464 l 230 464 z "},"N":{"ha":1042,"x_min":1,"x_max":925,"o":"m 925 1 l 696 1 l 696 118 l 580 118 l 580 234 l 464 234 l 464 350 l 348 350 l 348 464 l 229 464 l 229 1 l 1 1 l 1 578 l 117 578 l 117 696 l 1 696 l 1 924 l 230 924 l 230 808 l 346 808 l 346 692 l 462 692 l 462 576 l 578 576 l 578 462 l 696 462 l 696 924 l 925 924 l 925 1 m 230 464 l 230 576 l 117 576 l 117 464 l 230 464 z "},"O":{"ha":1042,"x_min":1,"x_max":925,"o":"m 925 117 l 808 117 l 808 1 l 117 1 l 117 118 l 1 118 l 1 809 l 117 809 l 117 924 l 578 924 l 578 696 l 230 696 l 230 230 l 696 230 l 696 924 l 809 924 l 809 808 l 925 808 l 925 117 z "},"P":{"ha":1042,"x_min":1,"x_max":925,"o":"m 925 464 l 808 464 l 808 348 l 348 348 l 348 578 l 696 578 l 696 696 l 230 696 l 230 1 l 1 1 l 1 925 l 809 925 l 809 808 l 925 808 l 925 464 z "},"Q":{"ha":1042,"x_min":1,"x_max":925,"o":"m 925 117 l 808 117 l 808 1 l 576 1 l 576 -115 l 348 -115 l 348 230 l 696 230 l 696 696 l 230 696 l 230 1 l 117 1 l 117 118 l 1 118 l 1 809 l 117 809 l 117 924 l 809 924 l 809 808 l 925 808 l 925 117 z "},"R":{"ha":1042,"x_min":1,"x_max":925,"o":"m 925 464 l 808 464 l 808 229 l 925 229 l 925 1 l 696 1 l 696 118 l 580 118 l 580 234 l 464 234 l 464 350 l 348 350 l 348 578 l 696 578 l 696 696 l 230 696 l 230 1 l 1 1 l 1 925 l 809 925 l 809 808 l 925 808 l 925 464 z "},"S":{"ha":1042,"x_min":1,"x_max":925,"o":"m 925 117 l 808 117 l 808 1 l 1 1 l 1 230 l 696 230 l 696 348 l 117 348 l 117 465 l 1 465 l 1 809 l 117 809 l 117 924 l 924 924 l 924 696 l 230 696 l 230 576 l 809 576 l 809 461 l 925 461 l 925 117 z "},"T":{"ha":1042,"x_min":1,"x_max":924,"o":"m 924 696 l 578 696 l 578 1 l 348 1 l 348 696 l 1 696 l 1 925 l 924 925 l 924 696 z "},"U":{"ha":1042,"x_min":1,"x_max":925,"o":"m 925 117 l 808 117 l 808 1 l 117 1 l 117 118 l 1 118 l 1 924 l 230 924 l 230 230 l 696 230 l 696 924 l 925 924 l 925 117 z "},"V":{"ha":1042,"x_min":1,"x_max":925,"o":"m 925 348 l 808 348 l 808 233 l 692 233 l 692 117 l 576 117 l 576 1 l 348 1 l 348 118 l 233 118 l 233 234 l 117 234 l 117 350 l 1 350 l 1 924 l 230 924 l 230 461 l 346 461 l 346 346 l 580 346 l 580 462 l 696 462 l 696 924 l 925 924 l 925 348 z "},"W":{"ha":1157,"x_min":1,"x_max":1041,"o":"m 1041 1 l 811 1 l 811 118 l 696 118 l 696 234 l 580 234 l 580 348 l 461 348 l 461 233 l 345 233 l 345 117 l 229 117 l 229 1 l 1 1 l 1 924 l 230 924 l 230 462 l 350 462 l 350 578 l 465 578 l 465 693 l 578 693 l 578 576 l 693 576 l 693 462 l 811 462 l 811 924 l 1041 924 l 1041 348 l 925 348 l 925 229 l 1041 229 l 1041 1 m 925 348 l 925 461 l 811 461 l 811 348 l 925 348 z "},"X":{"ha":1042,"x_min":1,"x_max":925,"o":"m 925 1 l 696 1 l 696 118 l 580 118 l 580 233 l 345 233 l 345 117 l 229 117 l 229 1 l 1 1 l 1 230 l 118 230 l 118 346 l 233 346 l 233 580 l 117 580 l 117 696 l 1 696 l 1 924 l 230 924 l 230 808 l 346 808 l 346 692 l 462 692 l 462 578 l 580 578 l 580 809 l 697 809 l 697 925 l 925 925 l 925 696 l 808 696 l 808 580 l 578 580 l 578 461 l 693 461 l 693 345 l 809 345 l 809 229 l 925 229 l 925 1 z "},"Y":{"ha":1042,"x_min":1,"x_max":925,"o":"m 925 580 l 808 580 l 808 464 l 692 464 l 692 348 l 576 348 l 576 1 l 348 1 l 348 348 l 233 348 l 233 465 l 117 465 l 117 580 l 1 580 l 1 924 l 230 924 l 230 692 l 346 692 l 346 576 l 580 576 l 580 693 l 696 693 l 696 925 l 925 925 l 925 580 z "},"Z":{"ha":1042,"x_min":1,"x_max":924,"o":"m 924 696 l 808 696 l 808 580 l 692 580 l 692 464 l 576 464 l 576 348 l 233 348 l 233 462 l 350 462 l 350 578 l 464 578 l 464 696 l 1 696 l 1 925 l 924 925 l 924 696 m 924 1 l 1 1 l 1 230 l 924 230 l 924 1 z "},"[":{"ha":463,"x_min":1,"x_max":346,"o":"m 346 1 l 1 1 l 1 924 l 346 924 l 346 696 l 230 696 l 230 229 l 346 229 l 346 1 z "},"]":{"ha":463,"x_min":1,"x_max":346,"o":"m 346 1 l 1 1 l 1 230 l 117 230 l 117 696 l 1 696 l 1 924 l 346 924 l 346 1 z "},"_":{"ha":810,"x_min":1,"x_max":693,"o":"m 693 1 l 1 1 l 1 230 l 693 230 l 693 1 z "},"a":{"ha":1042,"x_min":1,"x_max":925,"o":"m 925 1 l 696 1 l 696 464 l 230 464 l 230 230 l 578 230 l 578 1 l 117 1 l 117 118 l 1 118 l 1 578 l 117 578 l 117 693 l 925 693 l 925 1 z "},"b":{"ha":1042,"x_min":1,"x_max":925,"o":"m 925 117 l 808 117 l 808 1 l 1 1 l 1 924 l 230 924 l 230 230 l 696 230 l 696 464 l 348 464 l 348 693 l 809 693 l 809 576 l 925 576 l 925 117 z "},"c":{"ha":1042,"x_min":1,"x_max":924,"o":"m 924 1 l 117 1 l 117 118 l 1 118 l 1 578 l 117 578 l 117 693 l 924 693 l 924 464 l 230 464 l 230 230 l 924 230 l 924 1 z "},"d":{"ha":1042,"x_min":1,"x_max":925,"o":"m 925 1 l 117 1 l 117 118 l 1 118 l 1 578 l 118 578 l 118 693 l 578 693 l 578 464 l 230 464 l 230 230 l 696 230 l 696 924 l 925 924 l 925 1 z "},"e":{"ha":1042,"x_min":1,"x_max":925,"o":"m 925 1 l 117 1 l 117 118 l 1 118 l 1 578 l 117 578 l 117 693 l 924 693 l 924 464 l 808 464 l 808 348 l 693 348 l 693 229 l 925 229 l 925 1 m 576 348 l 576 462 l 233 462 l 233 233 l 461 233 l 461 348 l 576 348 z "},"f":{"ha":810,"x_min":1,"x_max":693,"o":"m 693 348 l 346 348 l 346 1 l 117 1 l 117 348 l 1 348 l 1 578 l 118 578 l 118 809 l 233 809 l 233 924 l 693 924 l 693 696 l 346 696 l 346 576 l 693 576 l 693 348 z "},"g":{"ha":1042,"x_min":1,"x_max":925,"o":"m 925 -230 l 808 -230 l 808 -346 l 117 -346 l 117 -117 l 696 -117 l 696 464 l 230 464 l 230 229 l 578 229 l 578 1 l 117 1 l 117 118 l 1 118 l 1 578 l 117 578 l 117 692 l 925 692 l 925 -230 z "},"h":{"ha":1042,"x_min":1,"x_max":925,"o":"m 925 1 l 696 1 l 696 464 l 348 464 l 348 693 l 809 693 l 809 576 l 925 576 l 925 1 m 230 1 l 1 1 l 1 924 l 230 924 l 230 1 z "},"i":{"ha":347,"x_min":1,"x_max":230,"o":"m 230 696 l 1 696 l 1 924 l 230 924 l 230 696 m 230 1 l 1 1 l 1 576 l 230 576 l 230 1 z "},"j":{"ha":347,"x_min":-230,"x_max":230,"o":"m 230 696 l 1 696 l 1 924 l 230 924 l 230 696 m 230 -230 l 113 -230 l 113 -346 l -230 -346 l -230 -117 l 1 -117 l 1 576 l 230 576 l 230 -230 z "},"k":{"ha":1042,"x_min":1,"x_max":925,"o":"m 925 1 l 696 1 l 696 118 l 580 118 l 580 234 l 464 234 l 464 350 l 348 350 l 348 578 l 465 578 l 465 693 l 580 693 l 580 808 l 809 808 l 809 580 l 692 580 l 692 345 l 809 345 l 809 229 l 925 229 l 925 1 m 230 1 l 1 1 l 1 924 l 230 924 l 230 1 z "},"l":{"ha":463,"x_min":1,"x_max":346,"o":"m 346 1 l 117 1 l 117 696 l 1 696 l 1 924 l 346 924 l 346 1 z "},"m":{"ha":1273,"x_min":1,"x_max":1156,"o":"m 1156 1 l 927 1 l 927 464 l 692 464 l 692 1 l 464 1 l 464 464 l 1 464 l 1 692 l 1041 692 l 1041 576 l 1156 576 l 1156 1 m 230 1 l 1 1 l 1 345 l 230 345 l 230 1 z "},"n":{"ha":1042,"x_min":1,"x_max":925,"o":"m 925 1 l 696 1 l 696 464 l 1 464 l 1 693 l 809 693 l 809 576 l 925 576 l 925 1 m 230 1 l 1 1 l 1 346 l 230 346 l 230 1 z "},"o":{"ha":1042,"x_min":1,"x_max":925,"o":"m 925 117 l 808 117 l 808 1 l 117 1 l 117 118 l 1 118 l 1 578 l 117 578 l 117 693 l 809 693 l 809 576 l 925 576 l 925 117 m 693 233 l 693 462 l 233 462 l 233 233 l 693 233 z "},"p":{"ha":1042,"x_min":1,"x_max":925,"o":"m 925 117 l 808 117 l 808 1 l 348 1 l 348 230 l 696 230 l 696 464 l 230 464 l 230 -230 l 1 -230 l 1 692 l 809 692 l 809 576 l 925 576 l 925 117 z "},"q":{"ha":1042,"x_min":1,"x_max":925,"o":"m 925 -230 l 696 -230 l 696 464 l 230 464 l 230 229 l 578 229 l 578 1 l 117 1 l 117 118 l 1 118 l 1 578 l 117 578 l 117 692 l 925 692 l 925 -230 z "},"r":{"ha":810,"x_min":1,"x_max":693,"o":"m 693 464 l 230 464 l 230 1 l 1 1 l 1 578 l 117 578 l 117 693 l 693 693 l 693 464 z "},"s":{"ha":1042,"x_min":1,"x_max":925,"o":"m 925 -115 l 808 -115 l 808 -230 l 117 -230 l 117 -1 l 696 -1 l 696 118 l 580 118 l 580 233 l 461 233 l 461 117 l 117 117 l 117 234 l 1 234 l 1 578 l 117 578 l 117 692 l 808 692 l 808 464 l 230 464 l 230 345 l 346 345 l 346 230 l 465 230 l 465 346 l 809 346 l 809 229 l 925 229 l 925 -115 z "},"t":{"ha":926,"x_min":1,"x_max":809,"o":"m 809 1 l 233 1 l 233 118 l 117 118 l 117 464 l 1 464 l 1 693 l 117 693 l 117 924 l 346 924 l 346 692 l 808 692 l 808 464 l 346 464 l 346 230 l 809 230 l 809 1 z "},"u":{"ha":1042,"x_min":1,"x_max":925,"o":"m 925 1 l 348 1 l 348 230 l 696 230 l 696 692 l 925 692 l 925 1 m 230 1 l 117 1 l 117 118 l 1 118 l 1 692 l 230 692 l 230 1 z "},"v":{"ha":1042,"x_min":1,"x_max":924,"o":"m 924 464 l 808 464 l 808 1 l 348 1 l 348 230 l 580 230 l 580 693 l 924 693 l 924 464 m 230 1 l 117 1 l 117 118 l 1 118 l 1 692 l 230 692 l 230 1 z "},"w":{"ha":1273,"x_min":1,"x_max":1156,"o":"m 1156 1 l 348 1 l 348 230 l 464 230 l 464 692 l 693 692 l 693 230 l 927 230 l 927 693 l 1156 693 l 1156 1 m 230 1 l 117 1 l 117 118 l 1 118 l 1 692 l 230 692 l 230 1 z "},"x":{"ha":1042,"x_min":1,"x_max":925,"o":"m 925 1 l 696 1 l 696 118 l 580 118 l 580 233 l 345 233 l 345 117 l 229 117 l 229 1 l 1 1 l 1 230 l 117 230 l 117 464 l 1 464 l 1 692 l 230 692 l 230 576 l 346 576 l 346 462 l 580 462 l 580 578 l 697 578 l 697 693 l 925 693 l 925 464 l 808 464 l 808 229 l 925 229 l 925 1 z "},"y":{"ha":1042,"x_min":1,"x_max":925,"o":"m 925 -230 l 808 -230 l 808 -346 l 233 -346 l 233 -117 l 696 -117 l 696 692 l 925 692 l 925 -230 m 578 1 l 117 1 l 117 118 l 1 118 l 1 692 l 230 692 l 230 229 l 578 229 l 578 1 z "},"z":{"ha":1042,"x_min":1,"x_max":925,"o":"m 925 233 l 808 233 l 808 117 l 464 117 l 464 233 l 345 233 l 345 117 l 230 117 l 230 -2 l 808 -2 l 808 -230 l 117 -230 l 117 -113 l 1 -113 l 1 230 l 118 230 l 118 346 l 462 346 l 462 230 l 581 230 l 581 346 l 696 346 l 696 464 l 117 464 l 117 692 l 809 692 l 809 576 l 925 576 l 925 233 z "},"~":{"ha":1042,"x_min":1,"x_max":925,"o":"m 925 696 l 808 696 l 808 580 l 464 580 l 464 696 l 229 696 l 229 580 l 1 580 l 1 809 l 117 809 l 117 925 l 462 925 l 462 809 l 696 809 l 696 925 l 925 925 l 925 696 z "}," ":{"ha":579,"x_min":0,"x_max":0,"o":""}}}
